<?xml version="1.0" encoding="UTF-8" standalone="no"?>
<!-- Created with Inkscape (http://www.inkscape.org/) -->

<svg
   xmlns:dc="http://purl.org/dc/elements/1.1/"
   xmlns:cc="http://creativecommons.org/ns#"
   xmlns:rdf="http://www.w3.org/1999/02/22-rdf-syntax-ns#"
   xmlns:svg="http://www.w3.org/2000/svg"
   xmlns="http://www.w3.org/2000/svg"
   xmlns:sodipodi="http://sodipodi.sourceforge.net/DTD/sodipodi-0.dtd"
   xmlns:inkscape="http://www.inkscape.org/namespaces/inkscape"
   width="64"
   height="64"
   viewBox="0 0 16.933333 16.933334"
   version="1.1"
   id="svg8"
   inkscape:version="0.92.4 (f8dce91, 2019-08-02)"
   sodipodi:docname="crosshairs.svg"
   inkscape:export-filename="/home/chris/godot/3D shooter/3d_bomber/assets/ui/crosshairs/crosshairs.png"
   inkscape:export-xdpi="384"
   inkscape:export-ydpi="384">
  <defs
     id="defs2" />
  <sodipodi:namedview
     id="base"
     pagecolor="#ffffff"
     bordercolor="#666666"
     borderopacity="1.0"
     inkscape:pageopacity="0.0"
     inkscape:pageshadow="2"
     inkscape:zoom="3.2234126"
     inkscape:cx="-67.403739"
     inkscape:cy="3.3147744"
     inkscape:document-units="mm"
     inkscape:current-layer="layer1"
     showgrid="true"
     units="px"
     inkscape:snap-bbox="true"
     inkscape:bbox-paths="true"
     inkscape:snap-bbox-edge-midpoints="true"
     inkscape:snap-bbox-midpoints="true"
     inkscape:bbox-nodes="true"
     inkscape:object-paths="true"
     inkscape:snap-intersection-paths="true"
     inkscape:snap-smooth-nodes="true"
     inkscape:snap-midpoints="true"
     inkscape:snap-others="true"
     inkscape:snap-center="true"
     inkscape:snap-object-midpoints="true"
     inkscape:snap-text-baseline="true"
     inkscape:snap-page="true"
     inkscape:window-width="1920"
     inkscape:window-height="1048"
     inkscape:window-x="0"
     inkscape:window-y="1080"
     inkscape:window-maximized="1">
    <inkscape:grid
       type="xygrid"
       id="grid47"
       empspacing="4" />
  </sodipodi:namedview>
  <metadata
     id="metadata5">
    <rdf:RDF>
      <cc:Work
         rdf:about="">
        <dc:format>image/svg+xml</dc:format>
        <dc:type
           rdf:resource="http://purl.org/dc/dcmitype/StillImage" />
        <dc:title></dc:title>
      </cc:Work>
    </rdf:RDF>
  </metadata>
  <g
     inkscape:label="outline"
     inkscape:groupmode="layer"
     id="layer1"
     transform="translate(0,-280.06665)"
     style="display:none"
     sodipodi:insensitive="true">
    <g
       id="g37"
       transform="translate(-4.7683716e-7,280.06665)">
      <g
         transform="translate(0,-280.06665)"
         id="layer1-3"
         inkscape:label="outline">
        <rect
           style="stroke-width:0.41834188"
           y="280.59583"
           x="7.4083333"
           height="5.2916389"
           width="2.1166668"
           id="rect3734" />
        <rect
           id="rect3736"
           width="2.1166668"
           height="5.2916741"
           x="7.4083333"
           y="291.17914"
           style="stroke-width:0.41834328" />
        <rect
           transform="rotate(90)"
           id="rect3738"
           width="2.1166658"
           height="5.291657"
           x="287.47498"
           y="-16.404167"
           style="stroke-width:0.41834253" />
        <rect
           transform="rotate(90)"
           style="stroke-width:0.41834265"
           y="-5.8208227"
           x="287.47498"
           height="5.291656"
           width="2.1166675"
           id="rect3740" />
        <path
           inkscape:connector-curvature="0"
           id="path3742"
           transform="matrix(0.26458333,0,0,0.26458333,0,280.06665)"
           d="M 32,10 A 21.999998,21.999998 0 0 0 10,32 21.999998,21.999998 0 0 0 32,54 21.999998,21.999998 0 0 0 54,32 21.999998,21.999998 0 0 0 32,10 Z m 0,4 A 17.999997,17.999997 0 0 1 50,32 17.999997,17.999997 0 0 1 32,50 17.999997,17.999997 0 0 1 14,32 17.999997,17.999997 0 0 1 32,14 Z"
           style="stroke-width:0.99999994" />
      </g>
    </g>
  </g>
  <g
     inkscape:groupmode="layer"
     id="layer2"
     inkscape:label="crosshairs"
     sodipodi:insensitive="true"
     style="display:inline">
    <g
       inkscape:label="crosshairs"
       id="layer2-5">
      <rect
         style="fill:#ffffff;stroke-width:0.34370333"
         y="0.79374999"
         x="7.6729174"
         height="4.7624893"
         width="1.5874994"
         id="rect3734-3" />
      <rect
         id="rect3736-6"
         width="1.5874994"
         height="4.7624826"
         x="7.6729174"
         y="11.377084"
         style="fill:#ffffff;stroke-width:0.34370312" />
      <rect
         transform="rotate(90)"
         id="rect3738-7"
         width="1.5875163"
         height="4.7625108"
         x="7.6729002"
         y="-16.139593"
         style="fill:#ffffff;stroke-width:0.34370598" />
      <rect
         transform="rotate(90)"
         style="fill:#ffffff;stroke-width:0.34370574"
         y="-5.5562501"
         x="7.6729026"
         height="4.7625113"
         width="1.5875142"
         id="rect3740-5" />
    </g>
    <path
       style="fill:#ffffff;stroke-width:0.93333328"
       d="M 32,11 A 21,21 0 0 0 11,32 21,21 0 0 0 32,53 21,21 0 0 0 53,32 21,21 0 0 0 32,11 Z m 0,2 A 18.999998,18.999998 0 0 1 51,32 18.999998,18.999998 0 0 1 32,51 18.999998,18.999998 0 0 1 13,32 18.999998,18.999998 0 0 1 32,13 Z"
       transform="scale(0.26458333)"
       id="path123"
       inkscape:connector-curvature="0" />
  </g>
</svg>
