<?xml version="1.0" encoding="UTF-8" standalone="no"?>
<!-- Created with Inkscape (http://www.inkscape.org/) -->

<svg
   xmlns:dc="http://purl.org/dc/elements/1.1/"
   xmlns:cc="http://creativecommons.org/ns#"
   xmlns:rdf="http://www.w3.org/1999/02/22-rdf-syntax-ns#"
   xmlns:svg="http://www.w3.org/2000/svg"
   xmlns="http://www.w3.org/2000/svg"
   xmlns:sodipodi="http://sodipodi.sourceforge.net/DTD/sodipodi-0.dtd"
   xmlns:inkscape="http://www.inkscape.org/namespaces/inkscape"
   width="128"
   height="128"
   viewBox="0 0 33.866666 33.866666"
   version="1.1"
   id="svg8"
   sodipodi:docname="splat.svg"
   inkscape:export-filename="/home/chris/godot/3D shooter/3d_bomber/assets/textures/sprites/splat_outline.png"
   inkscape:export-xdpi="96"
   inkscape:export-ydpi="96"
   inkscape:version="0.92.4 (f8dce91, 2019-08-02)">
  <defs
     id="defs2">
    <filter
       inkscape:collect="always"
       style="color-interpolation-filters:sRGB"
       id="filter4592"
       x="-0.036000001"
       width="1.072"
       y="-0.035999999"
       height="1.072">
      <feGaussianBlur
         inkscape:collect="always"
         stdDeviation="0.4465254"
         id="feGaussianBlur4594" />
    </filter>
    <filter
       inkscape:collect="always"
       style="color-interpolation-filters:sRGB"
       id="filter4614"
       x="-0.03"
       width="1.06"
       y="-0.03"
       height="1.06">
      <feGaussianBlur
         inkscape:collect="always"
         stdDeviation="1.4999756"
         id="feGaussianBlur4616" />
    </filter>
  </defs>
  <sodipodi:namedview
     id="base"
     pagecolor="#ffffff"
     bordercolor="#666666"
     borderopacity="1.0"
     inkscape:pageopacity="0.0"
     inkscape:pageshadow="2"
     inkscape:zoom="5.4375"
     inkscape:cx="65.246786"
     inkscape:cy="39.56093"
     inkscape:document-units="mm"
     inkscape:current-layer="layer1"
     showgrid="true"
     units="px"
     showguides="true"
     inkscape:window-width="1920"
     inkscape:window-height="1168"
     inkscape:window-x="1920"
     inkscape:window-y="1080"
     inkscape:window-maximized="1">
    <inkscape:grid
       type="xygrid"
       id="grid10"
       empspacing="4" />
  </sodipodi:namedview>
  <metadata
     id="metadata5">
    <rdf:RDF>
      <cc:Work
         rdf:about="">
        <dc:format>image/svg+xml</dc:format>
        <dc:type
           rdf:resource="http://purl.org/dc/dcmitype/StillImage" />
        <dc:title></dc:title>
      </cc:Work>
    </rdf:RDF>
  </metadata>
  <g
     inkscape:label="splat_outline"
     inkscape:groupmode="layer"
     id="layer1"
     transform="translate(0,-263.13334)"
     style="display:inline">
    <path
       style="fill:#ffffff;stroke-width:0.9374696"
       d="m 64.001953,4 c -2.553823,0 -4.929312,0.5899216 -6.748047,2.0683594 -1.818735,1.4784 -2.727868,3.6314582 -3.044922,5.5996096 -0.634106,3.936302 0.347536,7.824959 1.142578,11.74414 0.795024,3.919181 1.493608,7.801554 1.271485,10.490235 -0.222123,2.688642 -0.642951,3.792947 -3.099609,4.810547 -2.456773,1.0176 -3.534514,0.532974 -5.591797,-1.210938 -2.057288,-1.743874 -4.303776,-4.984892 -6.511719,-8.318359 -2.207943,-3.33343 -4.263119,-6.772052 -7.494141,-9.107422 -1.615511,-1.167723 -3.785793,-2.047321 -6.117187,-1.806641 -2.331394,0.240756 -4.422778,1.502849 -6.228516,3.308594 -1.805806,1.80582 -3.067961,3.897076 -3.308594,6.228516 -0.240631,2.331439 0.63908,4.501401 1.806641,6.117187 2.335122,3.231534 5.773938,5.285309 9.107422,7.494141 3.333484,2.208831 6.574284,4.453728 8.318359,6.511719 1.744077,2.058028 2.228526,3.142954 1.210938,5.599609 -1.017545,2.456579 -2.121988,2.877978 -4.810547,3.099609 -2.688559,0.221481 -6.571068,-0.485357 -10.490235,-1.28125 -3.919165,-0.795855 -7.80187,-1.773771 -11.738281,-1.140625 -1.968205,0.316725 -4.1267979,1.226213 -5.6054685,3.044922 -1.4786706,1.818671 -2.0683594,4.192267 -2.0683594,6.746094 0,2.553827 0.5899322,4.929338 2.0683594,6.748047 1.4784272,1.818784 3.6314631,2.727857 5.5996095,3.044922 3.936292,0.634091 7.824949,-0.347668 11.74414,-1.142578 3.919192,-0.795024 7.801562,-1.493608 10.490235,-1.271485 2.688672,0.222236 3.792965,0.642917 4.810547,3.099609 1.017588,2.456656 0.533139,3.539628 -1.210938,5.597657 -1.744075,2.05799 -4.984875,4.302887 -8.318359,6.511719 -3.333485,2.208793 -6.772301,4.264522 -9.107422,7.496093 -1.167561,1.615824 -2.047273,3.785786 -1.806641,6.117189 0.240632,2.33144 1.502788,4.42269 3.308594,6.22851 1.805807,1.80579 3.896889,3.0663 6.228516,3.30665 2.331627,0.24037 4.501801,-0.63659 6.117187,-1.80469 3.230773,-2.33613 5.286205,-5.77309 7.494141,-9.107424 2.207932,-3.3343 4.454333,-6.581694 6.511719,-8.326172 2.057382,-1.744479 3.135251,-2.228424 5.591797,-1.210938 2.456658,1.0176 2.87749,2.121867 3.099609,4.810547 0.222123,2.688643 -0.476461,6.571057 -1.271485,10.490237 -0.795027,3.91918 -1.776684,7.8078 -1.142578,11.74414 0.317065,1.96811 1.226187,4.12117 3.044922,5.59961 1.818735,1.4784 4.19422,2.06836 6.748047,2.06836 2.553823,0 4.927412,-0.5897 6.746094,-2.06836 1.818678,-1.47867 2.728322,-3.63728 3.044922,-5.60547 0.633192,-3.93638 -0.346704,-7.8191 -1.142578,-11.73828 -0.79589,-3.91915 -1.500914,-7.801708 -1.279297,-10.490237 0.221631,-2.688567 0.643045,-3.792985 3.099609,-4.810547 2.456451,-1.017486 3.533697,-0.53373 5.591797,1.210938 2.058104,1.744667 4.310715,4.991872 6.519531,8.326172 2.208813,3.334374 4.262822,6.771564 7.494141,9.107424 1.615661,1.16795 3.785514,2.04495 6.117188,1.80469 2.33167,-0.24038 4.42264,-1.50079 6.22852,-3.30665 1.8058,-1.80582 3.06795,-3.89707 3.30859,-6.22851 0.2406,-2.331403 -0.63909,-4.501365 -1.80664,-6.117189 -2.33512,-3.231571 -5.77394,-5.2873 -9.107424,-7.496093 -3.333483,-2.208832 -6.574285,-4.453729 -8.318359,-6.511719 -1.744074,-2.058029 -2.228526,-3.141001 -1.210938,-5.597657 1.017578,-2.456692 2.121874,-2.877486 4.810547,-3.099609 2.688673,-0.222236 6.571044,0.476461 10.490234,1.271485 3.91919,0.795023 7.80785,1.776669 11.74414,1.142578 1.96815,-0.317103 4.12119,-1.226138 5.59961,-3.044922 C 123.41007,68.927385 124,66.551874 124,63.998047 c 0,-2.553827 -0.58969,-4.927423 -2.06836,-6.746094 -1.47867,-1.818709 -3.63726,-2.728273 -5.60547,-3.044922 -3.93641,-0.633146 -7.81911,0.344581 -11.73828,1.140625 -3.91917,0.795893 -7.801674,1.502882 -10.490234,1.28125 -2.688559,-0.22148 -3.793003,-0.64303 -4.810547,-3.099609 -1.017588,-2.456655 -0.533136,-3.541581 1.210938,-5.599609 1.744074,-2.057991 4.984876,-4.302888 8.318359,-6.511719 3.333484,-2.208832 6.772304,-4.262607 9.107424,-7.494141 1.16755,-1.615786 2.04727,-3.785748 1.80664,-6.117187 -0.24061,-2.33144 -1.50279,-4.422696 -3.30859,-6.228516 -1.80581,-1.80582 -3.89708,-3.067951 -6.22852,-3.308594 -2.33144,-0.240378 -4.501406,0.639069 -6.117188,1.806641 -3.231568,2.335143 -5.285321,5.773954 -7.494141,9.107422 -2.20882,3.333505 -4.453717,6.574296 -6.511719,8.318359 -2.058001,1.744063 -3.142931,2.2285 -5.599609,1.210938 -2.456564,-1.017525 -2.877997,-2.122018 -3.099609,-4.810547 -0.221632,-2.688567 0.483407,-6.571091 1.279297,-10.490235 0.795889,-3.919143 1.77577,-7.801865 1.142578,-11.738281 C 73.476396,9.7056391 72.566725,7.5469861 70.748047,6.0683594 68.929365,4.589657 66.555776,4 64.001953,4 Z M 64,7.7441406 c 16.017328,0 -5.757063,28.2981724 9.041016,34.4277344 C 87.839098,48.301437 92.453338,12.894744 103.7793,24.220703 115.10526,35.546662 79.698559,40.160887 85.828125,54.958984 91.957691,69.757044 120.25586,47.982665 120.25586,64 c 0,16.017335 -28.298169,-5.757082 -34.427735,9.041016 C 79.698559,87.839075 115.10526,92.451385 103.7793,103.77734 92.453334,115.1033 87.839094,79.698563 73.041016,85.828125 58.242933,91.957687 80.017328,120.25586 64,120.25586 c -16.017328,0 5.757067,-28.298173 -9.041016,-34.427735 C 40.160902,79.698563 35.546664,115.1033 24.220703,103.77734 12.894741,92.451385 48.301441,87.839075 42.171875,73.041016 36.042308,58.242918 7.7441406,80.017335 7.7441406,64 c 0,-16.017335 28.2981684,5.757044 34.4277344,-9.041016 C 48.301441,40.160887 12.894742,35.546662 24.220703,24.220703 35.546665,12.894744 40.160902,48.301437 54.958984,42.171875 69.757063,36.042313 47.982672,7.7441406 64,7.7441406 Z"
       transform="matrix(0.26458333,0,0,0.26458333,0,263.13334)"
       id="path21"
       inkscape:connector-curvature="0" />
    <path
       inkscape:connector-curvature="0"
       id="path4596"
       transform="matrix(0.26458333,0,0,0.26458333,0,263.13334)"
       d="m 64.001953,4 c -2.553823,0 -4.929312,0.5899216 -6.748047,2.0683594 -1.818735,1.4784 -2.727868,3.6314582 -3.044922,5.5996096 -0.634106,3.936302 0.347536,7.824959 1.142578,11.74414 0.795024,3.919181 1.493608,7.801554 1.271485,10.490235 -0.222123,2.688642 -0.642951,3.792947 -3.099609,4.810547 -2.456773,1.0176 -3.534514,0.532974 -5.591797,-1.210938 -2.057288,-1.743874 -4.303776,-4.984892 -6.511719,-8.318359 -2.207943,-3.33343 -4.263119,-6.772052 -7.494141,-9.107422 -1.615511,-1.167723 -3.785793,-2.047321 -6.117187,-1.806641 -2.331394,0.240756 -4.422778,1.502849 -6.228516,3.308594 -1.805806,1.80582 -3.067961,3.897076 -3.308594,6.228516 -0.240631,2.331439 0.63908,4.501401 1.806641,6.117187 2.335122,3.231534 5.773938,5.285309 9.107422,7.494141 3.333484,2.208831 6.574284,4.453728 8.318359,6.511719 1.744077,2.058028 2.228526,3.142954 1.210938,5.599609 -1.017545,2.456579 -2.121988,2.877978 -4.810547,3.099609 -2.688559,0.221481 -6.571068,-0.485357 -10.490235,-1.28125 -3.919165,-0.795855 -7.80187,-1.773771 -11.738281,-1.140625 -1.968205,0.316725 -4.1267979,1.226213 -5.6054685,3.044922 -1.4786706,1.818671 -2.0683594,4.192267 -2.0683594,6.746094 0,2.553827 0.5899322,4.929338 2.0683594,6.748047 1.4784272,1.818784 3.6314631,2.727857 5.5996095,3.044922 3.936292,0.634091 7.824949,-0.347668 11.74414,-1.142578 3.919192,-0.795024 7.801562,-1.493608 10.490235,-1.271485 2.688672,0.222236 3.792965,0.642917 4.810547,3.099609 1.017588,2.456656 0.533139,3.539628 -1.210938,5.597657 -1.744075,2.05799 -4.984875,4.302887 -8.318359,6.511719 -3.333485,2.208793 -6.772301,4.264522 -9.107422,7.496093 -1.167561,1.615824 -2.047273,3.785786 -1.806641,6.117189 0.240632,2.33144 1.502788,4.42269 3.308594,6.22851 1.805807,1.80579 3.896889,3.0663 6.228516,3.30665 2.331627,0.24037 4.501801,-0.63659 6.117187,-1.80469 3.230773,-2.33613 5.286205,-5.77309 7.494141,-9.107424 2.207932,-3.3343 4.454333,-6.581694 6.511719,-8.326172 2.057382,-1.744479 3.135251,-2.228424 5.591797,-1.210938 2.456658,1.0176 2.87749,2.121867 3.099609,4.810547 0.222123,2.688643 -0.476461,6.571057 -1.271485,10.490237 -0.795027,3.91918 -1.776684,7.8078 -1.142578,11.74414 0.317065,1.96811 1.226187,4.12117 3.044922,5.59961 1.818735,1.4784 4.19422,2.06836 6.748047,2.06836 2.553823,0 4.927412,-0.5897 6.746094,-2.06836 1.818678,-1.47867 2.728322,-3.63728 3.044922,-5.60547 0.633192,-3.93638 -0.346704,-7.8191 -1.142578,-11.73828 -0.79589,-3.91915 -1.500914,-7.801708 -1.279297,-10.490237 0.221631,-2.688567 0.643045,-3.792985 3.099609,-4.810547 2.456451,-1.017486 3.533697,-0.53373 5.591797,1.210938 2.058104,1.744667 4.310715,4.991872 6.519531,8.326172 2.208813,3.334374 4.262822,6.771564 7.494141,9.107424 1.615661,1.16795 3.785514,2.04495 6.117188,1.80469 2.33167,-0.24038 4.42264,-1.50079 6.22852,-3.30665 1.8058,-1.80582 3.06795,-3.89707 3.30859,-6.22851 0.2406,-2.331403 -0.63909,-4.501365 -1.80664,-6.117189 -2.33512,-3.231571 -5.77394,-5.2873 -9.107424,-7.496093 -3.333483,-2.208832 -6.574285,-4.453729 -8.318359,-6.511719 -1.744074,-2.058029 -2.228526,-3.141001 -1.210938,-5.597657 1.017578,-2.456692 2.121874,-2.877486 4.810547,-3.099609 2.688673,-0.222236 6.571044,0.476461 10.490234,1.271485 3.91919,0.795023 7.80785,1.776669 11.74414,1.142578 1.96815,-0.317103 4.12119,-1.226138 5.59961,-3.044922 C 123.41007,68.927385 124,66.551874 124,63.998047 c 0,-2.553827 -0.58969,-4.927423 -2.06836,-6.746094 -1.47867,-1.818709 -3.63726,-2.728273 -5.60547,-3.044922 -3.93641,-0.633146 -7.81911,0.344581 -11.73828,1.140625 -3.91917,0.795893 -7.801674,1.502882 -10.490234,1.28125 -2.688559,-0.22148 -3.793003,-0.64303 -4.810547,-3.099609 -1.017588,-2.456655 -0.533136,-3.541581 1.210938,-5.599609 1.744074,-2.057991 4.984876,-4.302888 8.318359,-6.511719 3.333484,-2.208832 6.772304,-4.262607 9.107424,-7.494141 1.16755,-1.615786 2.04727,-3.785748 1.80664,-6.117187 -0.24061,-2.33144 -1.50279,-4.422696 -3.30859,-6.228516 -1.80581,-1.80582 -3.89708,-3.067951 -6.22852,-3.308594 -2.33144,-0.240378 -4.501406,0.639069 -6.117188,1.806641 -3.231568,2.335143 -5.285321,5.773954 -7.494141,9.107422 -2.20882,3.333505 -4.453717,6.574296 -6.511719,8.318359 -2.058001,1.744063 -3.142931,2.2285 -5.599609,1.210938 -2.456564,-1.017525 -2.877997,-2.122018 -3.099609,-4.810547 -0.221632,-2.688567 0.483407,-6.571091 1.279297,-10.490235 0.795889,-3.919143 1.77577,-7.801865 1.142578,-11.738281 C 73.476396,9.7056391 72.566725,7.5469861 70.748047,6.0683594 68.929365,4.589657 66.555776,4 64.001953,4 Z M 64,7.7441406 c 16.017328,0 -5.757063,28.2981724 9.041016,34.4277344 C 87.839098,48.301437 92.453338,12.894744 103.7793,24.220703 115.10526,35.546662 79.698559,40.160887 85.828125,54.958984 91.957691,69.757044 120.25586,47.982665 120.25586,64 c 0,16.017335 -28.298169,-5.757082 -34.427735,9.041016 C 79.698559,87.839075 115.10526,92.451385 103.7793,103.77734 92.453334,115.1033 87.839094,79.698563 73.041016,85.828125 58.242933,91.957687 80.017328,120.25586 64,120.25586 c -16.017328,0 5.757067,-28.298173 -9.041016,-34.427735 C 40.160902,79.698563 35.546664,115.1033 24.220703,103.77734 12.894741,92.451385 48.301441,87.839075 42.171875,73.041016 36.042308,58.242918 7.7441406,80.017335 7.7441406,64 c 0,-16.017335 28.2981684,5.757044 34.4277344,-9.041016 C 48.301441,40.160887 12.894742,35.546662 24.220703,24.220703 35.546665,12.894744 40.160902,48.301437 54.958984,42.171875 69.757063,36.042313 47.982672,7.7441406 64,7.7441406 Z"
       style="fill:#ffffff;stroke-width:0.9374696;filter:url(#filter4614)" />
  </g>
  <g
     inkscape:groupmode="layer"
     id="layer2"
     inkscape:label="splat"
     style="display:none"
     sodipodi:insensitive="true">
    <path
       inkscape:connector-curvature="0"
       style="fill:#ffffff;stroke-width:0.2480696;filter:url(#filter4592)"
       d="m 16.933351,31.81749 c -4.237918,0 1.523036,-7.486901 -2.39229,-9.108681 -3.915327,-1.62178 -5.1357544,7.74586 -8.1324149,4.7492 -2.9966609,-2.99666 6.3709869,-4.21709 4.7492049,-8.13241 -1.621781,-3.91533 -9.1086805,1.84563 -9.1086805,-2.39229 0,-4.23792 7.4868995,1.52303 9.1086805,-2.39229 1.621782,-3.91533 -7.7458662,-5.1357599 -4.7492057,-8.1324199 2.9966607,-2.99666 4.2170887,6.3709899 8.1324157,4.7492099 3.915325,-1.6217799 -1.845629,-9.1086799 2.392289,-9.1086799 4.237918,0 -1.523035,7.4869 2.39229,9.1086799 3.915326,1.62178 5.135754,-7.7458699 8.132414,-4.7492099 2.996662,2.99666 -6.370986,4.2170899 -4.749205,8.1324199 1.621781,3.91532 9.10868,-1.84563 9.10868,2.39229 0,4.23792 -7.486899,-1.52304 -9.10868,2.39229 -1.621781,3.91532 7.745867,5.13575 4.749206,8.13241 -2.996661,2.99666 -4.217089,-6.37098 -8.132414,-4.7492 -3.915326,1.62178 1.845628,9.108681 -2.39229,9.108681 z"
       id="path14" />
    <path
       id="path70"
       d="m 16.933351,31.81749 c -4.237918,0 1.523036,-7.486901 -2.39229,-9.108681 -3.915327,-1.62178 -5.1357544,7.74586 -8.1324149,4.7492 -2.9966609,-2.99666 6.3709869,-4.21709 4.7492049,-8.13241 -1.621781,-3.91533 -9.1086805,1.84563 -9.1086805,-2.39229 0,-4.23792 7.4868995,1.52303 9.1086805,-2.39229 1.621782,-3.91533 -7.7458662,-5.1357599 -4.7492057,-8.1324199 2.9966607,-2.99666 4.2170887,6.3709899 8.1324157,4.7492099 3.915325,-1.6217799 -1.845629,-9.1086799 2.392289,-9.1086799 4.237918,0 -1.523035,7.4869 2.39229,9.1086799 3.915326,1.62178 5.135754,-7.7458699 8.132414,-4.7492099 2.996662,2.99666 -6.370986,4.2170899 -4.749205,8.1324199 1.621781,3.91532 9.10868,-1.84563 9.10868,2.39229 0,4.23792 -7.486899,-1.52304 -9.10868,2.39229 -1.621781,3.91532 7.745867,5.13575 4.749206,8.13241 -2.996661,2.99666 -4.217089,-6.37098 -8.132414,-4.7492 -3.915326,1.62178 1.845628,9.108681 -2.39229,9.108681 z"
       style="fill:#ffffff;stroke-width:0.2480696"
       inkscape:connector-curvature="0" />
    <path
       style="fill:#b3b3b3;stroke-width:0.2480696"
       d="m 15.319445,3.2701091 c -0.183863,1.2263 0.507885,3.16945 0.642461,4.8572101 0.148454,-1.4871599 -0.493356,-3.39632 -0.642461,-4.8572101 z m 3.227812,0 C 18.39815,4.7309992 17.756341,6.6401593 17.904794,8.1273192 18.039371,6.4395591 18.731118,4.4964091 18.547257,3.2701091 Z M 5.927198,7.0691592 c -0.9829889,2.18588 4.70907,3.4670898 5.358691,6.0868998 0.682353,-2.84416 -4.5343062,-4.2161999 -5.358691,-6.0868998 z m 22.012304,0 c -0.824385,1.8706999 -6.041044,3.2427398 -5.358692,6.0868998 0.649621,-2.61981 6.34168,-3.9010198 5.358692,-6.0868998 z M 2.0913247,16.437179 c -0.027167,0.14799 -0.042153,0.31202 -0.042153,0.49614 2e-7,4.23792 7.4870256,-1.52281 9.1088063,2.3925 0.05556,0.13413 0.09722,0.26448 0.127911,0.39246 0.105063,-0.42368 0.08054,-0.88149 -0.127911,-1.38473 -1.551323,-3.74523 -8.4684919,1.3619 -9.0666533,-1.89637 z m 29.6840513,0 c -0.598162,3.25827 -7.515332,-1.84886 -9.066654,1.89637 -0.208452,0.50324 -0.232974,0.96105 -0.127912,1.38473 0.0307,-0.12798 0.07236,-0.25833 0.127912,-0.39246 1.62178,-3.91531 9.108804,1.84542 9.108804,-2.3925 0,-0.18412 -0.01497,-0.34815 -0.04215,-0.49614 z m -18.104724,5.0893 c -3.246417,-0.0435 -4.499304,7.70165 -7.2618498,4.93911 -0.229915,-0.22992 -0.3867074,-0.44937 -0.4816042,-0.6604 -0.2213877,0.50239 -0.131052,1.04002 0.4816042,1.65266 2.9966602,2.996679 4.2167068,-6.37095 8.1320328,-4.74917 0.953979,0.39515 1.331389,1.13994 1.421071,2.03835 0.105858,-1.32762 -0.133063,-2.49711 -1.421071,-3.03062 -0.305885,-0.1267 -0.595062,-0.18623 -0.870183,-0.18993 z m 6.525395,0 c -0.27512,0.004 -0.564297,0.0633 -0.870182,0.18993 -1.288009,0.53351 -1.526928,1.703 -1.421071,3.03062 0.08968,-0.89841 0.467091,-1.6432 1.421071,-2.03835 3.915326,-1.62178 5.135374,7.745849 8.132033,4.74917 0.612655,-0.61264 0.702992,-1.15027 0.481604,-1.65266 -0.09489,0.21103 -0.251688,0.43048 -0.481604,0.6604 -2.762548,2.76254 -4.015434,-4.98264 -7.261851,-4.93911 z m -4.876602,8.077771 c -0.130507,1.278649 0.11785,2.21324 1.613906,2.21324 1.496056,0 1.744411,-0.934591 1.613906,-2.21324 -0.111152,0.741349 -0.542459,1.22097 -1.613906,1.22097 -1.071449,0 -1.502754,-0.479621 -1.613906,-1.22097 z"
       id="path18"
       inkscape:connector-curvature="0" />
  </g>
</svg>
